<svg width="76" height="12" viewBox="0 0 76 12" fill="none" xmlns="http://www.w3.org/2000/svg">
<path d="M9.30385 6.17027L9.3056 6.16998L8.54632 6.82515L8.31664 7.02334L8.38635 7.31859L9.029 10.0406L9.02943 10.0424C9.04182 10.0941 9.03863 10.1482 9.02026 10.1981C9.00188 10.2479 8.96914 10.2912 8.92618 10.3225C8.88322 10.3537 8.83196 10.3715 8.77887 10.3736C8.72599 10.3758 8.67366 10.3622 8.62845 10.3347C8.62828 10.3346 8.62811 10.3345 8.62794 10.3344L6.26207 8.87836L6.00008 8.71712L5.73805 8.87829L3.37172 10.3338C3.37145 10.3339 3.37118 10.3341 3.3709 10.3343C3.32577 10.3615 3.27362 10.3748 3.22095 10.3726C3.16796 10.3704 3.11681 10.3526 3.07394 10.3214C3.03106 10.2901 2.99839 10.2469 2.98002 10.1972C2.96166 10.1474 2.95842 10.0933 2.97073 10.0418L2.9709 10.041L3.6159 7.31899L3.68592 7.02352L3.45602 6.82515L1.34695 5.00526C1.34687 5.00519 1.3468 5.00512 1.34672 5.00506C1.30647 4.97019 1.27735 4.92425 1.263 4.87296C1.24863 4.82158 1.24971 4.76709 1.26611 4.71632C1.28251 4.66554 1.31351 4.62072 1.35524 4.58746C1.39661 4.55447 1.4467 4.5343 1.49936 4.5294L4.26271 4.30646L4.56774 4.28185L4.6846 3.99903L5.75148 1.41715L5.75194 1.41604C5.77203 1.36707 5.80624 1.32519 5.8502 1.29571C5.89416 1.26623 5.9459 1.25049 5.99883 1.25049C6.05176 1.25049 6.1035 1.26623 6.14746 1.29571C6.19142 1.32519 6.22562 1.36707 6.24572 1.41604L6.24615 1.41708L7.31256 3.99896L7.4294 4.28185L7.73448 4.30646L10.4982 4.52943C10.4984 4.52945 10.4987 4.52947 10.4989 4.52949C10.5519 4.53412 10.6024 4.55421 10.6441 4.58727C10.6859 4.62049 10.7171 4.66533 10.7336 4.71616C10.7501 4.767 10.7512 4.82158 10.7368 4.87306C10.7225 4.92454 10.6932 4.97064 10.6528 5.00557L9.30385 6.17027ZM2.48467 9.92581L2.48469 9.92581L2.48467 9.92581Z" fill="white" stroke="#F5B700"/>
<path d="M25.3038 6.17027L25.3056 6.16998L24.5463 6.82515L24.3166 7.02334L24.3863 7.31859L25.029 10.0406L25.0294 10.0424C25.0418 10.0941 25.0386 10.1482 25.0203 10.1981C25.0019 10.2479 24.9691 10.2912 24.9262 10.3225C24.8832 10.3537 24.832 10.3715 24.7789 10.3736C24.726 10.3758 24.6737 10.3622 24.6285 10.3347C24.6283 10.3346 24.6281 10.3345 24.6279 10.3344L22.2621 8.87836L22.0001 8.71712L21.738 8.87829L19.3717 10.3338C19.3715 10.3339 19.3712 10.3341 19.3709 10.3343C19.3258 10.3615 19.2736 10.3748 19.221 10.3726C19.168 10.3704 19.1168 10.3526 19.0739 10.3214C19.0311 10.2901 18.9984 10.2469 18.98 10.1972C18.9617 10.1474 18.9584 10.0933 18.9707 10.0418L18.9709 10.041L19.6159 7.31899L19.6859 7.02352L19.456 6.82515L17.3469 5.00526C17.3469 5.00519 17.3468 5.00512 17.3467 5.00506C17.3065 4.97019 17.2774 4.92425 17.263 4.87296C17.2486 4.82158 17.2497 4.76709 17.2661 4.71632C17.2825 4.66554 17.3135 4.62072 17.3552 4.58746C17.3966 4.55447 17.4467 4.5343 17.4994 4.5294L20.2627 4.30646L20.5677 4.28185L20.6846 3.99903L21.7515 1.41715L21.7519 1.41604C21.772 1.36707 21.8062 1.32519 21.8502 1.29571C21.8942 1.26623 21.9459 1.25049 21.9988 1.25049C22.0518 1.25049 22.1035 1.26623 22.1475 1.29571C22.1914 1.32519 22.2256 1.36707 22.2457 1.41604L22.2462 1.41708L23.3126 3.99896L23.4294 4.28185L23.7345 4.30646L26.4982 4.52943C26.4984 4.52945 26.4987 4.52947 26.4989 4.52949C26.5519 4.53412 26.6024 4.55421 26.6441 4.58727C26.6859 4.62049 26.7171 4.66533 26.7336 4.71616C26.7501 4.767 26.7512 4.82158 26.7368 4.87306C26.7225 4.92454 26.6932 4.97064 26.6528 5.00557L25.3038 6.17027ZM18.4847 9.92581L18.4847 9.92581L18.4847 9.92581Z" fill="white" stroke="#F5B700"/>
<path d="M41.3038 6.17027L41.3056 6.16998L40.5463 6.82515L40.3166 7.02334L40.3863 7.31859L41.029 10.0406L41.0294 10.0424C41.0418 10.0941 41.0386 10.1482 41.0203 10.1981C41.0019 10.2479 40.9691 10.2912 40.9262 10.3225C40.8832 10.3537 40.832 10.3715 40.7789 10.3736C40.726 10.3758 40.6737 10.3622 40.6285 10.3347C40.6283 10.3346 40.6281 10.3345 40.6279 10.3344L38.2621 8.87836L38.0001 8.71712L37.738 8.87829L35.3717 10.3338C35.3715 10.3339 35.3712 10.3341 35.3709 10.3343C35.3258 10.3615 35.2736 10.3748 35.221 10.3726C35.168 10.3704 35.1168 10.3526 35.0739 10.3214C35.0311 10.2901 34.9984 10.2469 34.98 10.1972C34.9617 10.1474 34.9584 10.0933 34.9707 10.0418L34.9709 10.041L35.6159 7.31899L35.6859 7.02352L35.456 6.82515L33.3469 5.00526C33.3469 5.00519 33.3468 5.00512 33.3467 5.00506C33.3065 4.97019 33.2774 4.92425 33.263 4.87296C33.2486 4.82158 33.2497 4.76709 33.2661 4.71632C33.2825 4.66554 33.3135 4.62072 33.3552 4.58746C33.3966 4.55447 33.4467 4.5343 33.4994 4.5294L36.2627 4.30646L36.5677 4.28185L36.6846 3.99903L37.7515 1.41715L37.7519 1.41604C37.772 1.36707 37.8062 1.32519 37.8502 1.29571C37.8942 1.26623 37.9459 1.25049 37.9988 1.25049C38.0518 1.25049 38.1035 1.26623 38.1475 1.29571C38.1914 1.32519 38.2256 1.36707 38.2457 1.41604L38.2462 1.41708L39.3126 3.99896L39.4294 4.28185L39.7345 4.30646L42.4982 4.52943C42.4984 4.52945 42.4987 4.52947 42.4989 4.52949C42.5519 4.53412 42.6024 4.55421 42.6441 4.58727C42.6859 4.62049 42.7171 4.66533 42.7336 4.71616C42.7501 4.767 42.7512 4.82158 42.7368 4.87306C42.7225 4.92454 42.6932 4.97064 42.6528 5.00557L41.3038 6.17027ZM34.4847 9.92581L34.4847 9.92581L34.4847 9.92581Z" fill="white" stroke="#F5B700"/>
<path d="M57.3038 6.17027L57.3056 6.16998L56.5463 6.82515L56.3166 7.02334L56.3863 7.31859L57.029 10.0406L57.0294 10.0424C57.0418 10.0941 57.0386 10.1482 57.0203 10.1981C57.0019 10.2479 56.9691 10.2912 56.9262 10.3225C56.8832 10.3537 56.832 10.3715 56.7789 10.3736C56.726 10.3758 56.6737 10.3622 56.6285 10.3347C56.6283 10.3346 56.6281 10.3345 56.6279 10.3344L54.2621 8.87836L54.0001 8.71712L53.738 8.87829L51.3717 10.3338C51.3715 10.3339 51.3712 10.3341 51.3709 10.3343C51.3258 10.3615 51.2736 10.3748 51.221 10.3726C51.168 10.3704 51.1168 10.3526 51.0739 10.3214C51.0311 10.2901 50.9984 10.2469 50.98 10.1972C50.9617 10.1474 50.9584 10.0933 50.9707 10.0418L50.9709 10.041L51.6159 7.31899L51.6859 7.02352L51.456 6.82515L49.3469 5.00526C49.3469 5.00519 49.3468 5.00512 49.3467 5.00506C49.3065 4.97019 49.2774 4.92425 49.263 4.87296C49.2486 4.82158 49.2497 4.76709 49.2661 4.71632C49.2825 4.66554 49.3135 4.62072 49.3552 4.58746C49.3966 4.55447 49.4467 4.5343 49.4994 4.5294L52.2627 4.30646L52.5677 4.28185L52.6846 3.99903L53.7515 1.41715L53.7519 1.41604C53.772 1.36707 53.8062 1.32519 53.8502 1.29571C53.8942 1.26623 53.9459 1.25049 53.9988 1.25049C54.0518 1.25049 54.1035 1.26623 54.1475 1.29571C54.1914 1.32519 54.2256 1.36707 54.2457 1.41604L54.2462 1.41708L55.3126 3.99896L55.4294 4.28185L55.7345 4.30646L58.4982 4.52943C58.4984 4.52945 58.4987 4.52947 58.4989 4.52949C58.5519 4.53412 58.6024 4.55421 58.6441 4.58727C58.6859 4.62049 58.7171 4.66533 58.7336 4.71616C58.7501 4.767 58.7512 4.82158 58.7368 4.87306C58.7225 4.92454 58.6932 4.97064 58.6528 5.00557L57.3038 6.17027ZM50.4847 9.92581L50.4847 9.92581L50.4847 9.92581Z" fill="white" stroke="#F5B700"/>
<path d="M73.3038 6.17027L73.3056 6.16998L72.5463 6.82515L72.3166 7.02334L72.3863 7.31859L73.029 10.0406L73.0294 10.0424C73.0418 10.0941 73.0386 10.1482 73.0203 10.1981C73.0019 10.2479 72.9691 10.2912 72.9262 10.3225C72.8832 10.3537 72.832 10.3715 72.7789 10.3736C72.726 10.3758 72.6737 10.3622 72.6285 10.3347C72.6283 10.3346 72.6281 10.3345 72.6279 10.3344L70.2621 8.87836L70.0001 8.71712L69.738 8.87829L67.3717 10.3338C67.3715 10.3339 67.3712 10.3341 67.3709 10.3343C67.3258 10.3615 67.2736 10.3748 67.221 10.3726C67.168 10.3704 67.1168 10.3526 67.0739 10.3214C67.0311 10.2901 66.9984 10.2469 66.98 10.1972C66.9617 10.1474 66.9584 10.0933 66.9707 10.0418L66.9709 10.041L67.6159 7.31899L67.6859 7.02352L67.456 6.82515L65.3469 5.00526C65.3469 5.00519 65.3468 5.00512 65.3467 5.00506C65.3065 4.97019 65.2774 4.92425 65.263 4.87296C65.2486 4.82158 65.2497 4.76709 65.2661 4.71632C65.2825 4.66554 65.3135 4.62072 65.3552 4.58746C65.3966 4.55447 65.4467 4.5343 65.4994 4.5294L68.2627 4.30646L68.5677 4.28185L68.6846 3.99903L69.7515 1.41715L69.7519 1.41604C69.772 1.36707 69.8062 1.32519 69.8502 1.29571C69.8942 1.26623 69.9459 1.25049 69.9988 1.25049C70.0518 1.25049 70.1035 1.26623 70.1475 1.29571C70.1914 1.32519 70.2256 1.36707 70.2457 1.41604L70.2462 1.41708L71.3126 3.99896L71.4294 4.28185L71.7345 4.30646L74.4982 4.52943C74.4984 4.52945 74.4987 4.52947 74.4989 4.52949C74.5519 4.53412 74.6024 4.55421 74.6441 4.58727C74.6859 4.62049 74.7171 4.66533 74.7336 4.71616C74.7501 4.767 74.7512 4.82158 74.7368 4.87306C74.7225 4.92454 74.6932 4.97064 74.6528 5.00557L73.3038 6.17027ZM66.4847 9.92581L66.4847 9.92581L66.4847 9.92581Z" fill="white" stroke="#F5B700"/>
</svg>
